<svg version="1.1" id="Layer_1" xmlns="http://www.w3.org/2000/svg" x="0" y="0" viewBox="0 0 300 300" xml:space="preserve"><style>.st2{fill:#fff}.st3{fill:#958fe7}.st5{fill:#ffc93c}.st8{fill:#059}.st9{fill:#ffe5b9}.st16{fill:#cbe8ff}.st17{fill:#eec8c3}.st18{fill:#6496a7}.st19{fill:#f4abb9}</style><path fill="none" d="M0 0h300v300H0z"/><path d="M180 233.6l-137.6 17L19.2 62.3l137.6-17c2.9-.4 5.5 1.7 5.8 4.6l22 177.9c.3 2.8-1.7 5.4-4.6 5.8z" fill="#bbe5e0"/><path transform="rotate(-7.048 98.095 114.45)" class="st2" d="M60.8 94.6h74.6v39.7H60.8z"/><path transform="rotate(-7.048 27.395 156.856)" class="st3" d="M24 62h6.8v189.7H24z"/><path class="st3" d="M210.8 274.2L95.4 256.6c-2.9-.4-4.9-3.1-4.4-6l21.4-141.1c.4-2.9 3.1-4.9 6-4.4l115.4 17.5c2.9.4 4.9 3.1 4.4 6l-21.4 141.1c-.4 2.9-3.1 4.9-6 4.5z"/><path d="M115.2 121.7l-4.5-.7c-1.9-.3-3.3-2.1-3-4l.2-1.1c.3-1.9 2.1-3.3 4-3l4.5.7c1.9.3 3.3 2.1 3 4l-.2 1.1c-.3 2-2.1 3.3-4 3zm-3.8 25.2l-4.5-.7c-1.9-.3-3.3-2.1-3-4l.2-1.1c.3-1.9 2.1-3.3 4-3l4.5.7c1.9.3 3.3 2.1 3 4l-.2 1.1c-.3 2-2.1 3.3-4 3zm-3.9 25.3l-4.5-.7c-1.9-.3-3.3-2.1-3-4l.2-1.1c.3-1.9 2.1-3.3 4-3l4.5.7c1.9.3 3.3 2.1 3 4l-.2 1.1c-.2 1.9-2 3.3-4 3zm-3.8 25.2l-4.5-.7c-1.9-.3-3.3-2.1-3-4l.2-1.1c.3-1.9 2.1-3.3 4-3l4.5.7c1.9.3 3.3 2.1 3 4l-.2 1.1c-.3 1.9-2.1 3.3-4 3zm-3.8 25.2l-4.5-.7c-1.9-.3-3.3-2.1-3-4l.2-1.1c.3-1.9 2.1-3.3 4-3l4.5.7c1.9.3 3.3 2.1 3 4l-.2 1.1c-.3 2-2.1 3.3-4 3zM96 247.8l-4.5-.7c-1.9-.3-3.3-2.1-3-4l.2-1.1c.3-1.9 2.1-3.3 4-3l4.5.7c1.9.3 3.3 2.1 3 4l-.2 1.1c-.2 2-2 3.3-4 3z" fill="#f7b548"/><path class="st5" d="M115.2 121.7l-4.5-.7c-1.9-.3-3.3-2.1-3-4l.2-1.1c.3-1.9 2.1-3.3 4-3l4.5.7c1.9.3 3.3 2.1 3 4l-.2 1.1c-.3 2-2.1 3.3-4 3zm-3.8 25.2l-4.5-.7c-1.9-.3-3.3-2.1-3-4l.2-1.1c.3-1.9 2.1-3.3 4-3l4.5.7c1.9.3 3.3 2.1 3 4l-.2 1.1c-.3 2-2.1 3.3-4 3zm-3.9 25.3l-4.5-.7c-1.9-.3-3.3-2.1-3-4l.2-1.1c.3-1.9 2.1-3.3 4-3l4.5.7c1.9.3 3.3 2.1 3 4l-.2 1.1c-.2 1.9-2 3.3-4 3zm-3.8 25.2l-4.5-.7c-1.9-.3-3.3-2.1-3-4l.2-1.1c.3-1.9 2.1-3.3 4-3l4.5.7c1.9.3 3.3 2.1 3 4l-.2 1.1c-.3 1.9-2.1 3.3-4 3zm-3.8 25.2l-4.5-.7c-1.9-.3-3.3-2.1-3-4l.2-1.1c.3-1.9 2.1-3.3 4-3l4.5.7c1.9.3 3.3 2.1 3 4l-.2 1.1c-.3 2-2.1 3.3-4 3zM96 247.8l-4.5-.7c-1.9-.3-3.3-2.1-3-4l.2-1.1c.3-1.9 2.1-3.3 4-3l4.5.7c1.9.3 3.3 2.1 3 4l-.2 1.1c-.2 2-2 3.3-4 3z"/><ellipse transform="rotate(-81.362 167.987 167.591)" class="st2" cx="168" cy="167.6" rx="24.4" ry="24.8"/><path class="st2" d="M176.3 238.4c-2.4-3.8-4.3-7-5.4-8.8-.3-.5.2-1.1.8-1 2.2.7 6.3 2.1 11.1 3.9.2.1.5 0 .7-.1 4.8-4.3 9.3-8.1 11.2-9.7.4-.3 1-.1 1.1.5.1 2.4.4 8 .4 14.3 0 .3.2.5.4.6 4.2 1.9 7.9 3.8 10 5.4.4.3.3 1-.3 1.2-1.8.4-5.4 1.2-9.7 2.1-.3.1-.5.3-.5.6-.2 5.4-.7 10.4-1.6 13.2-.1.4-.7.6-1 .3-2.6-2-6.2-6.5-9.7-11.5-.1-.2-.4-.3-.6-.3-5.9.9-11.3 1.3-14.5.8-.5-.1-.7-.6-.5-1 1.4-2.6 4.5-6.1 8.2-9.8 0 0 0-.4-.1-.7z"/><path class="st5" d="M179.4 239.4c-1.7-2.7-3.1-5-3.9-6.3-.2-.4.1-.8.6-.7 1.6.5 4.6 1.5 8 2.8.2.1.4 0 .5-.1 3.4-3.1 6.7-5.8 8-7 .3-.2.7-.1.8.3.1 1.8.3 5.8.3 10.3 0 .2.1.4.3.4 3 1.3 5.7 2.7 7.2 3.9.3.2.2.7-.2.8-1.3.3-3.9.9-7 1.5-.2 0-.4.2-.4.4-.1 3.9-.5 7.4-1.2 9.5-.1.3-.5.4-.7.2-1.9-1.4-4.4-4.6-7-8.3-.1-.1-.3-.2-.5-.2-4.2.6-8.1 1-10.4.6-.3-.1-.5-.4-.4-.7 1-1.8 3.3-4.4 5.9-7 .2 0 .2-.2.1-.4z"/><circle cx="45.1" cy="85.1" r="11.9" fill="#ffde80"/><path d="M39.8 88.2c1.7 1.8 4.3 2.7 6.9 2.1 2.6-.6 4.5-2.6 5.2-5" fill="none" stroke="#059" stroke-width="1.379" stroke-linecap="round" stroke-miterlimit="10"/><circle class="st8" cx="41.1" cy="82.3" r="1.3"/><circle class="st8" cx="47.4" cy="80.8" r="1.3"/><path class="st9" d="M256.3 216.1l-10.1 6.1c-.6.3-.4 1.2.3 1.3l2.7.2c.4 0 .7.4.6.8l-.2 1.1c-.1.6.5 1 1 .7l1.3-.8c.4-.2.9 0 1 .4l.3 1.1c.2.5.9.7 1.2.2 0 0 .5-.7.9-1.3 1.4-2.1 1.9-6.5 1.9-9 .2-.6-.4-1.1-.9-.8z"/><path class="st5" d="M248.3 221s.1 1.7 1.4 2c2.3.6 6.9 1.4 5.5 3.2-.2.2-.6.9-.6.9-.3.5-1.1.3-1.2-.2l-.3-1.1c-.1-.4-.6-.6-1-.4l-1.3.8c-.5.3-1.1-.1-1-.7l.2-1.1c.1-.4-.2-.8-.6-.8l-2.7-.2c-.7 0-.9-.9-.3-1.3l1.9-1.1z"/><path class="st9" d="M267.1 214l5.1 7c.3.4.2.9-.1.8l-1.3-.6c-.2-.1-.3.1-.3.4l.1.8c.1.4-.2.5-.5.2l-.7-.9c-.2-.3-.4-.3-.5 0l-.1.6c-.1.3-.4.2-.6-.2 0 0-.2-.6-.5-1.2-.7-1.9-1.1-5-1.1-6.7 0-.4.2-.5.5-.2z"/><path class="st5" d="M271.1 219.6s0 1.1-.7 1c-1.1-.2-3.4-.9-2.6.7.1.2.3.8.3.8.2.4.5.5.6.2l.1-.6c.1-.3.3-.3.5 0l.7.9c.3.3.5.2.5-.2l-.1-.8c0-.3.1-.5.3-.4l1.3.6c.3.2.4-.4.1-.8l-1-1.4z"/><path class="st9" d="M264.2 251.9l6.8-8.8-.8 5.6.8.4-3.7 7.8-.4-5.3z"/><path class="st5" d="M264.2 251.9l2.7-.3.4 5.3 1.7-3.5-.8-3.9-2.7.7z"/><path class="st9" d="M255.9 232.7l7.3.1-2 1.4.8 1.6-1.7.1.4 2.3z"/><path class="st5" d="M259.1 236.5l1.6 1.7-.4-2.3 1.7-.1-.8-1.6 2-1.4h-3.3l.5 1.7-1.2.6z"/><path class="st9" d="M246.8 231.7l-5.1 6 1.9-.5.5 1.8 1.9-1.9 1.2 1.6z"/><path class="st5" d="M241.7 237.7l1.9-.5.5 1.8 1.9-1.9 1.2 1.6-.2-3.2-1.8.9-1.3-1.3z"/><path class="st9" d="M288.9 221l-1 12.7c-.1.9-1.2 1.3-1.6.5l-1.5-2.7-2.1 1.9c-.5.5-1.2.2-1.3-.4l-.8-3.5-2.2 1c-.8.4-1.5-.6-.9-1.4l4.3-5.7c1.8-2.4 4.7-3.3 7.1-2.4z"/><path class="st5" d="M277.6 229.1c-.6.8.1 1.8.9 1.4l2.2-1 .8 3.5c.1.6.9.9 1.3.4l2.1-1.9 1.5 2.7c.4.8 1.5.4 1.6-.5l.4-4.6c-3.1 1.4-6.8.1-8.2-3.3l-2.6 3.3z"/><path class="st9" d="M242.9 203.9l-2.6 9.7c-.2.7.2 1.4.5.9l1.3-1.5.4 2.1c.1.5.4.6.6.2l1.2-2.3.7 1.5c.3.6.8 0 .7-.7l-.4-5.7c-.2-2.4-1.1-4-2.4-4.2z"/><path class="st5" d="M245.7 213.8c.1.8-.5 1.3-.7.7l-.7-1.5-1.2 2.3c-.2.4-.6.3-.6-.2l-.4-2.1-1.3 1.5c-.4.4-.7-.2-.5-.9l1-3.5c1 2.1 2.8 2.4 4.2.4l.2 3.3z"/><path d="M285.2 172.9l-31.8 20s-33.5-46.2-40.6-63.7c-7.4-18.2-24.3-54-24.3-54l37.2-18.5s2.4 12.7 16 30.7c10.8 14.4 43.5 85.5 43.5 85.5z" fill="#6acdf2"/><path d="M263.3 173.7c-.7.1-16.5 1.2-30.6-15.8-5.9-7.1-11.3-21.2-16.2-41.9-3.5-15.4-5.5-28.9-5.6-29l-.3-2.1 1.9 1.2c1.2.8 29 18.2 32.5 24.6 10.2 18.3 18.7 60.2 19.1 62l.2 1.1-1-.1z" fill="#008077"/><path d="M212 86.8s28.7 18 32.2 24.2c10.3 18.3 19 61.7 19 61.7s-15.8 1.4-29.7-15.5C219.6 140.3 212 86.8 212 86.8m-2.6-4.1l.6 4.3c.3 2.3 7.9 54.4 22 71.4 14.4 17.4 30.8 16.3 31.4 16.2l2.3-.2-.5-2.2c-.4-1.8-8.9-43.9-19.3-62.3-3.7-6.5-30-23-32.9-24.9l-3.6-2.3z" fill="#20645a"/><path d="M203.4 67.5c1.8 8.2 9.9 21.7 13.9 28.8 4 7.2 33.6 48.5 36.2 53.5s10.9 20.3 14.3 34.1" fill="none" stroke="#20645a" stroke-width="2.011" stroke-miterlimit="10"/><path id="SVGID_1_" d="M212 86.8s28.7 18 32.2 24.2c10.3 18.3 19 61.7 19 61.7s-15.8 1.4-29.7-15.5C219.6 140.3 212 86.8 212 86.8z" fill="#0994cb"/><path d="M229.9 98.8c-.3.2-.7.6-.7 1l-3.9 35.4c-.1.5.2 1.1.7 1.3l11.2 4.7c.7.3 1.5-.2 1.6-1l3.4-31.3c-2.5-2.8-7.3-6.6-12.3-10.1z" fill="#e67f8a"/><path class="st5" d="M215.8 107.7c1.1 5.2 2.4 10.9 3.9 16.6l33.7 21.8 2.2-4c-1-3.5-2.1-7.1-3.2-10.6l-36.6-23.8z"/><path class="st16" d="M257.5 148.8c-.5-2.1-1.1-4.3-1.8-6.6l-2.2 4 4 2.6z"/><path class="st17" d="M190 105.1l5.8-10.3-13.6-3.1c-1.1-.3-1.8 1-1.1 1.9l8.9 11.5z"/><path class="st18" d="M184.6 92.3l-2.2-.5c-1.1-.3-1.8 1-1.1 1.9l1.5 1.9 1.8-3.3z"/><ellipse transform="rotate(-55.887 192.693 137.916)" class="st19" cx="192.7" cy="137.9" rx="5.9" ry="6.2"/><path class="st5" d="M261 162.7c-.9-3.7-2-8.3-3.3-13.2l-32.9-9c2.1 5.5 4.4 10.5 6.8 14.2l29.4 8z"/><path class="st16" d="M191.2 143.8l2.7-11.6 6.4 1.7-2.7 11.6z"/><path class="st5" d="M239.8 137.3L190 105.1l5.9-10.2 48 31"/><path class="st17" d="M190 105.1l5.8-10.3-13.6-3.1c-1.1-.3-1.8 1-1.1 1.9l8.9 11.5z"/><path class="st18" d="M184.6 92.3l-2.2-.5c-1.1-.3-1.8 1-1.1 1.9l1.5 1.9 1.8-3.3z"/><ellipse transform="rotate(-55.887 192.693 137.916)" class="st19" cx="192.7" cy="137.9" rx="5.9" ry="6.2"/><path class="st5" d="M253.4 160.7l-55.8-15.2 2.7-11.6 52.2 14.1"/><path class="st16" d="M191.2 143.8l2.7-11.6 6.4 1.7-2.7 11.6z"/><path d="M225.5 60.1l-34.6 19.1c-1.2.7-2.6.1-3.3-1.1-.7-1.3-.1-2.8 1.1-3.5l34.6-19.1c1.2-.7 2.6-.1 3.3 1.1.6 1.2.1 2.8-1.1 3.5zm61 115.9l-31.3 19.7c-1 .6-2.2.3-2.9-.8l-.4-.7c-.6-1-.2-2.4.8-3l31.3-19.7c1-.6 2.2-.3 2.9.8l.4.7c.4 1 .2 2.4-.8 3z" fill="#3a79b5"/></svg>